name Walk3.mot
datacolumns 19
datarows 15
range 2.08900000 2.10300000
endheader

                time	   L_ground_force_vx	   L_ground_force_vy	   L_ground_force_vz	   L_ground_force_px	   L_ground_force_py	   L_ground_force_pz	   R_ground_force_vx	   R_ground_force_vy	   R_ground_force_vz	   R_ground_force_px	   R_ground_force_py	   R_ground_force_pz	   L_ground_torque_x	   L_ground_torque_y	   L_ground_torque_z	   R_ground_torque_x	   R_ground_torque_y	   R_ground_torque_z	
          2.08900000	          0.00000000	          0.00000000	          0.00000000	         -0.00000000	          0.00000000	          0.00000000	         11.89214998	         42.05982674	          2.39218115	          0.25087363	          0.00000000	          0.05009048	          0.00000000	          0.00000000	          0.00000000	          0.00000000	         -3.28978158	          0.00000000	
          2.09000000	          0.00000000	          0.00000000	          0.00000000	         -0.00000000	          0.00000000	         -0.00000000	         11.06421841	         38.61348827	          2.40944465	          0.24298520	          0.00000000	          0.04849567	          0.00000000	          0.00000000	          0.00000000	          0.00000000	         -3.10064870	          0.00000000	
          2.09100000	          0.00000000	          0.00000000	          0.00000000	         -0.00000000	          0.00000000	         -0.00000000	         10.26525601	         35.31806349	          2.41658478	          0.23492850	          0.00000000	          0.04686865	          0.00000000	         -0.00000000	          0.00000000	          0.00000000	         -2.91616705	          0.00000000	
          2.09200000	          0.00000000	          0.00000000	         -0.00000000	         -0.00000000	          0.00000000	         -0.00000000	          9.49566613	         32.17185467	          2.41428640	          0.22672425	          0.00000000	          0.04521365	          0.00000000	         -0.00000000	          0.00000000	          0.00000000	         -2.73653788	          0.00000000	
          2.09300000	          0.00000000	          0.00000000	         -0.00000000	         -0.00000000	          0.00000000	         -0.00000000	          8.75575487	         29.17305115	          2.40324216	          0.21839588	          0.00000000	          0.04353539	          0.00000000	         -0.00000000	          0.00000000	          0.00000000	         -2.56195092	          0.00000000	
          2.09400000	          0.00000000	          0.00000000	         -0.00000000	         -0.00000000	          0.00000000	         -0.00000000	          8.04572837	         26.31973374	          2.38415050	          0.20996969	          0.00000000	          0.04183912	          0.00000000	         -0.00000000	          0.00000000	          0.00000000	         -2.39258331	          0.00000000	
          2.09500000	          0.00000000	          0.00000000	         -0.00000000	         -0.00000000	          0.00000000	         -0.00000000	          7.36569139	         23.60986768	          2.35771213	          0.20147497	          0.00000000	          0.04013066	          0.00000000	         -0.00000000	          0.00000000	          0.00000000	         -2.22859786	          0.00000000	
          2.09600000	          0.00000000	          0.00000000	         -0.00000000	         -0.00000000	          0.00000000	         -0.00000000	          6.71564684	         21.04127475	          2.32462344	          0.19294368	          0.00000000	          0.03841630	          0.00000000	         -0.00000000	          0.00000000	          0.00000000	         -2.07014013	          0.00000000	
          2.09700000	          0.00000000	          0.00000000	         -0.00000000	         -0.00000000	          0.00000000	         -0.00000000	          6.09549572	         18.61157589	          2.28556541	          0.18440904	          0.00000000	          0.03670262	          0.00000000	         -0.00000000	          0.00000000	          0.00000000	         -1.91733342	          0.00000000	
          2.09800000	          0.00000000	          0.00000000	         -0.00000000	         -0.00000000	          0.00000000	         -0.00000000	          5.50503897	         16.31813134	          2.24119162	          0.17590320	          0.00000000	          0.03499595	          0.00000000	         -0.00000000	          0.00000000	          0.00000000	         -1.77027381	          0.00000000	
          2.09900000	          0.00000000	          0.00000000	         -0.00000000	         -0.00000000	          0.00000000	         -0.00000000	          4.94398305	         14.15802257	          2.19212175	          0.16745587	          0.00000000	          0.03330215	          0.00000000	         -0.00000000	          0.00000000	          0.00000000	         -1.62902838	          0.00000000	
          2.10000000	          0.00000000	          0.00000000	         -0.00000000	         -0.00000000	          0.00000000	         -0.00000000	          4.41194828	         12.12807538	          2.13894047	          0.15909399	          0.00000000	          0.03162652	          0.00000000	         -0.00000000	          0.00000000	          0.00000000	         -1.49363650	          0.00000000	
          2.10100000	          0.00000000	          0.00000000	         -0.00000000	         -0.00000000	          0.00000000	         -0.00000000	          3.90847760	         10.22489357	          2.08219834	          0.15084190	          0.00000000	          0.02997384	          0.00000000	         -0.00000000	          0.00000000	          0.00000000	         -1.36411210	          0.00000000	
          2.10200000	          0.00000000	          0.00000000	         -0.00000000	         -0.00000000	          0.00000000	         -0.00000000	          3.43304486	          8.44489071	          2.02241251	          0.14272143	          0.00000000	          0.02834843	          0.00000000	         -0.00000000	          0.00000000	          0.00000000	         -1.24044574	          0.00000000	
          2.10300000	          0.00000000	          0.00000000	         -0.00000000	         -0.00000000	          0.00000000	         -0.00000000	          2.98506272	          6.78431984	          1.96006770	          0.13475209	          0.00000000	          0.02675409	          0.00000000	         -0.00000000	          0.00000000	          0.00000000	         -1.12260665	          0.00000000	
